HIERARCHY
ROOT Hips
{
	OFFSET 0.000000 0.000000 0.000000
	CHANNELS 6 Xposition Yposition Zposition Xrotation Yrotation Zrotation
	JOINT LeftUpLeg_virtual
	{
		OFFSET 0.000000 0.000000 0.000000
		CHANNELS 3 Xrotation Yrotation Zrotation
		JOINT LeftUpLeg
		{
			OFFSET 11.394100 -6.187798 -0.413800
			CHANNELS 3 Xrotation Yrotation Zrotation
			JOINT LeftLeg
			{
				OFFSET 0.430247 -32.302673 3.732800
				CHANNELS 3 Xrotation Yrotation Zrotation
				JOINT LeftFoot
				{
					OFFSET -0.430247 -48.264931 -6.423300
					CHANNELS 3 Xrotation Yrotation Zrotation
					JOINT LeftToeBase
					{
						OFFSET 4.230900 -16.068199 23.438400
						CHANNELS 3 Xrotation Yrotation Zrotation
						JOINT LeftToe_End
						{
							OFFSET 4.510700 0.695400 19.974600
							CHANNELS 3 Xrotation Yrotation Zrotation
							End Site
							{
								OFFSET 0 0 0
							}
						}
					}
				}
			}
		}
	}
	JOINT RightUpLeg_virtual
	{
		OFFSET 0.000000 0.000000 0.000000
		CHANNELS 3 Xrotation Yrotation Zrotation
		JOINT RightUpLeg
		{
			OFFSET -11.333700 -6.187798 -0.413800
			CHANNELS 3 Xrotation Yrotation Zrotation
			JOINT RightLeg
			{
				OFFSET -0.430392 -32.302628 3.733000
				CHANNELS 3 Xrotation Yrotation Zrotation
				JOINT RightFoot
				{
					OFFSET 0.430392 -48.264973 -6.423500
					CHANNELS 3 Xrotation Yrotation Zrotation
					JOINT RightToeBase
					{
						OFFSET -4.230900 -16.068199 23.438400
						CHANNELS 3 Xrotation Yrotation Zrotation
						JOINT RightToe_End
						{
							OFFSET -4.510700 0.695400 19.974600
							CHANNELS 3 Xrotation Yrotation Zrotation
							End Site
							{
								OFFSET 0 0 0
							}
						}
					}
				}
			}
		}
	}
	JOINT Spine_virtual
	{
		OFFSET 0.000000 0.000000 0.000000
		CHANNELS 3 Xrotation Yrotation Zrotation
		JOINT Spine
		{
			OFFSET -0.002400 12.777504 0.315300
			CHANNELS 3 Xrotation Yrotation Zrotation
			JOINT Spine1
			{
				OFFSET -0.002067 5.816869 0.032633
				CHANNELS 3 Xrotation Yrotation Zrotation
				JOINT Spine1_split
				{
					OFFSET -0.002067 5.816869 0.032633
					CHANNELS 3 Xrotation Yrotation Zrotation
					JOINT Spine2
					{
						OFFSET -0.002067 5.816869 0.032633
						CHANNELS 3 Xrotation Yrotation Zrotation
						JOINT Neck_virtual
						{
							OFFSET 0.000000 0.000000 0.000000
							CHANNELS 3 Xrotation Yrotation Zrotation
							JOINT Neck
							{
								OFFSET -0.003700 21.199493 -0.826900
								CHANNELS 3 Xrotation Yrotation Zrotation
								JOINT Head
								{
									OFFSET 0.000000 20.442200 4.834800
									CHANNELS 3 Xrotation Yrotation Zrotation
									JOINT HeadTop_End
									{
										OFFSET 0.000000 34.668396 4.968400
										CHANNELS 3 Xrotation Yrotation Zrotation
										End Site
										{
											OFFSET 0 0 0
										}
									}
								}
							}
						}
						JOINT LeftShoulder_virtual
						{
							OFFSET 0.000000 0.000000 0.000000
							CHANNELS 3 Xrotation Yrotation Zrotation
							JOINT LeftShoulder
							{
								OFFSET 3.288150 8.794197 -1.372250
								CHANNELS 3 Xrotation Yrotation Zrotation
								JOINT LeftShoulder_split
								{
									OFFSET 3.288150 8.794197 -1.372250
									CHANNELS 3 Xrotation Yrotation Zrotation
									JOINT LeftArm
									{
										OFFSET 11.953299 -2.279007 -0.146200
										CHANNELS 3 Xrotation Yrotation Zrotation
										JOINT LeftForeArm
										{
											OFFSET 18.448900 0.000000 0.000000
											CHANNELS 3 Xrotation Yrotation Zrotation
											JOINT LeftHand
											{
												OFFSET 29.527798 0.000000 0.000000
												CHANNELS 3 Xrotation Yrotation Zrotation
												End Site
												{
													OFFSET 0 0 0
												}
											}
										}
									}
								}
							}
						}
						JOINT RightShoulder_virtual
						{
							OFFSET 0.000000 0.000000 0.000000
							CHANNELS 3 Xrotation Yrotation Zrotation
							JOINT RightShoulder
							{
								OFFSET -3.249400 8.794197 -1.372250
								CHANNELS 3 Xrotation Yrotation Zrotation
								JOINT RightShoulder_split
								{
									OFFSET -3.249400 8.794197 -1.372250
									CHANNELS 3 Xrotation Yrotation Zrotation
									JOINT RightArm
									{
										OFFSET -11.953299 -2.279007 -0.146200
										CHANNELS 3 Xrotation Yrotation Zrotation
										JOINT RightForeArm
										{
											OFFSET -18.448900 0.000000 0.000000
											CHANNELS 3 Xrotation Yrotation Zrotation
											JOINT RightHand
											{
												OFFSET -29.527802 0.000000 0.000000
												CHANNELS 3 Xrotation Yrotation Zrotation
												End Site
												{
													OFFSET 0 0 0
												}
											}
										}
									}
								}
							}
						}
					}
				}
			}
		}
	}
}
MOTION
Frames: 5
Frame Time: 0.03333333
4.147385 92.336922 37.896469 0.000000 0.000000 0.000000 7.788057 3.308600 0.770691 -35.163607 10.399159 15.520049 37.264952 -0.150425 4.488712 -7.005605 6.498071 -17.683846 1.268597 -4.397703 -2.349434 0.000000 0.000000 0.000000 8.539780 4.863970 0.640828 -38.838894 -3.461016 -4.942712 39.860742 5.496968 -6.188849 -7.806021 -14.056267 20.926778 7.982856 6.450143 -21.737014 0.000000 0.000000 0.000000 6.339487 9.279367 -0.045991 8.900132 -4.522780 -2.626738 2.936126 -1.152051 0.965522 -0.076618 0.138454 -0.088859 0.000000 0.000000 0.000000 -1.273144 1.924400 0.186369 22.447147 19.520489 5.426376 -6.591089 44.662586 -17.658906 0.000000 0.000000 0.000000 4.444576 -1.420217 1.079554 9.153408 -12.705840 26.965522 -3.360757 -3.521977 0.565011 -39.003297 -12.167574 -7.511664 167.575713 -77.186096 168.253883 0.000000 0.000000 0.000000 2.959322 0.695635 1.181920 0.345178 2.057011 -14.456189 1.482745 -1.740503 11.823972 -31.501048 32.576232 16.861901 -169.620289 48.582582 172.841694 0.000000 0.000000 0.000000 
3.995207 94.747192 38.634995 0.000000 0.000000 0.000000 8.322627 3.444908 1.069169 -32.617603 11.223963 14.350297 31.755438 0.107415 4.721858 -4.864793 6.865480 -17.593879 1.590643 -4.549545 -2.218148 0.000000 0.000000 0.000000 9.067058 5.136745 0.836554 -36.189044 -3.557351 -4.691143 34.675661 4.975420 -5.953778 -5.965944 -14.261971 20.809363 7.707058 6.584170 -20.045249 0.000000 0.000000 0.000000 7.223938 9.539792 0.053519 8.456978 -4.754735 -2.537752 2.054163 -1.332293 0.736001 -0.035826 0.147506 -0.077949 0.000000 0.000000 0.000000 -1.928961 1.763984 0.049210 21.375072 19.374880 5.460940 -4.778429 43.005152 -19.221623 0.000000 0.000000 0.000000 3.679927 -1.512567 1.041448 9.098489 -11.961866 26.809375 -3.744321 -3.908445 0.409551 -39.526715 -11.288724 -8.305223 166.970504 -76.747974 167.479544 0.000000 0.000000 0.000000 2.057070 0.425326 0.924511 0.527879 2.466917 -14.185571 1.908925 -2.331972 11.542083 -31.998572 32.263532 17.482211 -170.153290 48.699361 173.402712 0.000000 0.000000 0.000000 
3.862156 96.895767 39.264557 0.000000 0.000000 0.000000 8.787896 3.559323 1.351020 -30.401763 12.065676 13.386881 26.841735 0.111368 4.920671 -2.778789 6.998495 -17.671506 1.574627 -4.669498 -2.129228 0.000000 0.000000 0.000000 9.459961 5.494526 1.011293 -33.723274 -3.774191 -4.556666 30.121428 4.534827 -5.757718 -4.450142 -14.281609 20.635895 7.573809 6.717742 -18.150871 0.000000 0.000000 0.000000 7.812519 9.865456 0.170616 8.230031 -4.953130 -2.393259 1.285791 -1.536000 0.530169 0.018732 0.169574 -0.075066 0.000000 0.000000 0.000000 -2.429077 1.558884 -0.052114 20.239613 19.225265 5.472401 -3.573768 41.636960 -20.382254 0.000000 0.000000 0.000000 3.027052 -1.618907 1.018536 8.995033 -11.011598 26.606602 -3.998461 -4.362038 0.399445 -39.511552 -10.953491 -8.976483 165.913942 -76.439147 166.204771 0.000000 0.000000 0.000000 1.264699 0.131876 0.679942 0.685437 2.955107 -13.784440 2.003633 -3.021611 10.892665 -32.941012 31.772674 18.613756 -170.819029 49.010033 174.156245 0.000000 0.000000 0.000000 
3.772936 98.579262 39.643147 0.000000 0.000000 0.000000 9.099849 3.752236 1.525973 -28.750305 12.951272 12.797351 22.935275 -0.061011 5.001453 -1.030841 6.922550 -17.844428 1.459058 -4.749769 -2.139556 0.000000 0.000000 0.000000 9.725231 5.926093 1.104121 -31.614613 -4.095577 -4.509143 26.373146 4.286338 -5.599262 -3.431763 -14.022949 20.416692 7.792813 6.798511 -16.359898 0.000000 0.000000 0.000000 8.081554 10.152308 0.272146 8.160783 -5.088269 -2.200869 0.675267 -1.728152 0.359502 0.062811 0.210645 -0.093639 0.000000 0.000000 0.000000 -2.721851 1.329723 -0.116271 19.180752 19.055661 5.551321 -2.734167 40.552373 -21.303546 0.000000 0.000000 0.000000 2.495916 -1.718610 1.015597 8.859871 -9.900022 26.433841 -4.157131 -4.881217 0.617003 -39.052802 -11.156836 -9.586142 165.011291 -75.960678 165.105644 0.000000 0.000000 0.000000 0.645660 -0.157249 0.465613 0.793372 3.394344 -13.325523 1.810954 -3.496176 10.060531 -34.142541 31.005080 20.178648 -171.579475 49.317415 175.050413 0.000000 0.000000 0.000000 
3.727850 99.715576 39.859959 0.000000 0.000000 0.000000 9.278628 3.942439 1.556768 -27.700664 13.830288 12.619173 20.154478 -0.318792 4.912971 0.195305 6.667956 -18.060239 1.509326 -4.793575 -2.268068 0.000000 0.000000 0.000000 9.868143 6.279654 1.086305 -29.978964 -4.462804 -4.494308 23.548194 4.219967 -5.448965 -2.855817 -13.534710 20.179253 8.104150 6.852377 -14.896882 0.000000 0.000000 0.000000 8.040870 10.378452 0.337777 8.155280 -5.134614 -1.965217 0.217097 -1.897819 0.215322 0.094184 0.274735 -0.110386 0.000000 0.000000 0.000000 -2.800082 1.104749 -0.169048 18.317837 18.879396 5.793861 -2.020674 39.664865 -22.142099 0.000000 0.000000 0.000000 2.071185 -1.792481 1.006962 8.687575 -8.686724 26.197833 -4.135861 -5.557450 1.022175 -38.241970 -11.777406 -10.333381 164.701816 -75.062536 164.641956 0.000000 0.000000 0.000000 0.235384 -0.427799 0.270059 0.848734 3.661768 -12.896907 1.346233 -3.608971 9.296274 -35.138151 29.775267 21.949972 -172.363184 49.337714 176.028783 0.000000 0.000000 0.000000 
